<svg width="669" height="410" viewBox="0 0 669 410" fill="none" xmlns="http://www.w3.org/2000/svg">
<g filter="url(#filter0_b_2077_14168)">
<circle cx="205" cy="205" r="106.5" stroke="#CD5334" stroke-width="3"/>
</g>
<path d="M340.131 139.992C325.556 109.627 301.185 85.0523 270.944 70.2236C240.702 55.3949 206.35 51.1757 173.419 58.2453C140.488 65.3149 110.895 83.262 89.4045 109.196C67.9141 135.131 55.7776 167.543 54.9492 201.215C54.1208 234.886 64.6487 267.856 84.8377 294.816C105.027 321.775 133.702 341.156 166.245 349.837C198.789 358.517 233.307 355.992 264.241 342.669C295.175 329.345 320.724 305.998 336.775 276.387L319.95 267.267C305.947 293.1 283.657 313.468 256.67 325.092C229.683 336.715 199.569 338.918 171.177 331.345C142.786 323.772 117.77 306.864 100.157 283.344C82.5434 259.824 73.3586 231.06 74.0814 201.685C74.8041 172.31 85.3921 144.033 104.141 121.407C122.889 98.7818 148.707 83.1246 177.436 76.9569C206.166 70.7893 236.135 74.4702 262.518 87.407C288.901 100.344 310.162 121.783 322.878 148.274L340.131 139.992Z" fill="#083171"/>
<path d="M374.8 223.45V223.75C374.767 227.283 374.117 230.517 372.85 233.45C371.617 236.417 369.933 238.95 367.8 241.05C365.667 243.183 363.167 244.833 360.3 246C357.433 247.167 354.383 247.75 351.15 247.75C348.117 247.75 345.183 247.2 342.35 246.1C339.517 245 337.1 243.45 335.1 241.45C334.333 240.683 333.95 239.833 333.95 238.9C333.95 238 334.3 237.233 335 236.6C335.5 236.167 335.967 235.9 336.4 235.8C336.867 235.7 337.3 235.7 337.7 235.8C338.133 235.9 338.533 236.067 338.9 236.3C339.267 236.533 339.617 236.783 339.95 237.05C341.65 238.55 343.483 239.65 345.45 240.35C347.417 241.05 349.5 241.383 351.7 241.35C354.033 241.317 356.217 240.85 358.25 239.95C360.317 239.05 362.1 237.8 363.6 236.2C365.133 234.633 366.333 232.767 367.2 230.6C368.067 228.433 368.5 226.05 368.5 223.45V221.95C366.3 224.317 363.7 226.183 360.7 227.55C357.733 228.917 354.5 229.6 351 229.6C347.733 229.6 344.65 228.983 341.75 227.75C338.85 226.483 336.317 224.783 334.15 222.65C331.983 220.483 330.267 217.95 329 215.05C327.767 212.15 327.15 209.067 327.15 205.8C327.15 202.5 327.767 199.4 329 196.5C330.267 193.567 331.983 191.033 334.15 188.9C336.317 186.733 338.85 185.033 341.75 183.8C344.65 182.533 347.733 181.9 351 181.9C354.5 181.9 357.733 182.583 360.7 183.95C363.7 185.317 366.3 187.2 368.5 189.6V185C368.5 184.1 368.8 183.367 369.4 182.8C370.033 182.2 370.783 181.9 371.65 181.9C372.517 181.9 373.25 182.2 373.85 182.8C374.483 183.367 374.8 184.1 374.8 185V223.45ZM333.45 205.8C333.45 208.2 333.9 210.467 334.8 212.6C335.733 214.7 336.983 216.55 338.55 218.15C340.117 219.717 341.967 220.967 344.1 221.9C346.233 222.833 348.533 223.3 351 223.3C353.467 223.3 355.767 222.833 357.9 221.9C360.033 220.967 361.883 219.717 363.45 218.15C365.017 216.55 366.25 214.7 367.15 212.6C368.05 210.467 368.5 208.2 368.5 205.8C368.5 203.367 368.05 201.083 367.15 198.95C366.25 196.817 365.017 194.967 363.45 193.4C361.883 191.8 360.033 190.55 357.9 189.65C355.767 188.717 353.467 188.25 351 188.25C348.567 188.25 346.283 188.717 344.15 189.65C342.017 190.55 340.15 191.8 338.55 193.4C336.983 194.967 335.733 196.817 334.8 198.95C333.9 201.083 333.45 203.367 333.45 205.8ZM391.333 205.8C391.333 208.2 391.783 210.467 392.683 212.6C393.616 214.7 394.866 216.55 396.433 218.15C397.999 219.717 399.849 220.967 401.983 221.9C404.116 222.833 406.416 223.3 408.883 223.3C411.349 223.3 413.649 222.833 415.783 221.9C417.916 220.967 419.766 219.717 421.333 218.15C422.933 216.55 424.183 214.7 425.083 212.6C425.983 210.467 426.433 208.2 426.433 205.8C426.433 203.367 425.983 201.083 425.083 198.95C424.183 196.817 422.933 194.967 421.333 193.4C419.766 191.8 417.916 190.55 415.783 189.65C413.649 188.717 411.349 188.25 408.883 188.25C406.449 188.25 404.166 188.717 402.033 189.65C399.899 190.55 398.033 191.8 396.433 193.4C394.866 194.967 393.616 196.817 392.683 198.95C391.783 201.083 391.333 203.367 391.333 205.8ZM385.033 205.8C385.033 202.5 385.649 199.4 386.883 196.5C388.149 193.567 389.866 191.033 392.033 188.9C394.199 186.733 396.733 185.033 399.633 183.8C402.533 182.533 405.616 181.9 408.883 181.9C412.183 181.9 415.266 182.533 418.133 183.8C421.033 185.033 423.549 186.733 425.683 188.9C427.849 191.033 429.549 193.567 430.783 196.5C432.049 199.4 432.683 202.5 432.683 205.8C432.683 209.067 432.049 212.15 430.783 215.05C429.549 217.95 427.849 220.483 425.683 222.65C423.549 224.783 421.033 226.483 418.133 227.75C415.266 228.983 412.183 229.6 408.883 229.6C405.616 229.6 402.533 228.983 399.633 227.75C396.733 226.483 394.199 224.783 392.033 222.65C389.866 220.483 388.149 217.95 386.883 215.05C385.649 212.15 385.033 209.067 385.033 205.8Z" fill="#083171"/>
<path d="M487.636 223.45V223.75C487.603 227.283 486.953 230.517 485.686 233.45C484.453 236.417 482.769 238.95 480.636 241.05C478.503 243.183 476.003 244.833 473.136 246C470.269 247.167 467.219 247.75 463.986 247.75C460.953 247.75 458.019 247.2 455.186 246.1C452.353 245 449.936 243.45 447.936 241.45C447.169 240.683 446.786 239.833 446.786 238.9C446.786 238 447.136 237.233 447.836 236.6C448.336 236.167 448.803 235.9 449.236 235.8C449.703 235.7 450.136 235.7 450.536 235.8C450.969 235.9 451.369 236.067 451.736 236.3C452.103 236.533 452.453 236.783 452.786 237.05C454.486 238.55 456.319 239.65 458.286 240.35C460.253 241.05 462.336 241.383 464.536 241.35C466.869 241.317 469.053 240.85 471.086 239.95C473.153 239.05 474.936 237.8 476.436 236.2C477.969 234.633 479.169 232.767 480.036 230.6C480.903 228.433 481.336 226.05 481.336 223.45V221.95C479.136 224.317 476.536 226.183 473.536 227.55C470.569 228.917 467.336 229.6 463.836 229.6C460.569 229.6 457.486 228.983 454.586 227.75C451.686 226.483 449.153 224.783 446.986 222.65C444.819 220.483 443.103 217.95 441.836 215.05C440.603 212.15 439.986 209.067 439.986 205.8C439.986 202.5 440.603 199.4 441.836 196.5C443.103 193.567 444.819 191.033 446.986 188.9C449.153 186.733 451.686 185.033 454.586 183.8C457.486 182.533 460.569 181.9 463.836 181.9C467.336 181.9 470.569 182.583 473.536 183.95C476.536 185.317 479.136 187.2 481.336 189.6V185C481.336 184.1 481.636 183.367 482.236 182.8C482.869 182.2 483.619 181.9 484.486 181.9C485.353 181.9 486.086 182.2 486.686 182.8C487.319 183.367 487.636 184.1 487.636 185V223.45ZM446.286 205.8C446.286 208.2 446.736 210.467 447.636 212.6C448.569 214.7 449.819 216.55 451.386 218.15C452.953 219.717 454.803 220.967 456.936 221.9C459.069 222.833 461.369 223.3 463.836 223.3C466.303 223.3 468.603 222.833 470.736 221.9C472.869 220.967 474.719 219.717 476.286 218.15C477.853 216.55 479.086 214.7 479.986 212.6C480.886 210.467 481.336 208.2 481.336 205.8C481.336 203.367 480.886 201.083 479.986 198.95C479.086 196.817 477.853 194.967 476.286 193.4C474.719 191.8 472.869 190.55 470.736 189.65C468.603 188.717 466.303 188.25 463.836 188.25C461.403 188.25 459.119 188.717 456.986 189.65C454.853 190.55 452.986 191.8 451.386 193.4C449.819 194.967 448.569 196.817 447.636 198.95C446.736 201.083 446.286 203.367 446.286 205.8ZM507.069 168.1V225.9C507.069 226.767 506.752 227.5 506.119 228.1C505.519 228.7 504.785 229 503.919 229C503.052 229 502.302 228.7 501.669 228.1C501.069 227.5 500.769 226.767 500.769 225.9V168.1C500.769 167.2 501.069 166.467 501.669 165.9C502.302 165.3 503.052 165 503.919 165C504.785 165 505.519 165.3 506.119 165.9C506.752 166.467 507.069 167.2 507.069 168.1ZM519.577 185C519.577 184.1 519.877 183.367 520.477 182.8C521.077 182.2 521.844 181.9 522.777 181.9C523.644 181.9 524.361 182.2 524.927 182.8C525.527 183.367 525.827 184.1 525.827 185V205.95V206.2C525.861 211.533 527.044 215.617 529.377 218.45C531.744 221.283 535.011 222.7 539.177 222.7C541.244 222.7 543.177 222.283 544.977 221.45C546.811 220.617 548.394 219.467 549.727 218C551.094 216.5 552.161 214.75 552.927 212.75C553.727 210.75 554.127 208.583 554.127 206.25V185.1C554.127 184.233 554.427 183.483 555.027 182.85C555.627 182.217 556.361 181.9 557.227 181.9C558.094 181.9 558.827 182.217 559.427 182.85C560.061 183.483 560.377 184.233 560.377 185.1V225.85C560.377 226.75 560.061 227.517 559.427 228.15C558.827 228.75 558.094 229.05 557.227 229.05C556.327 229.05 555.577 228.75 554.977 228.15C554.411 227.517 554.127 226.75 554.127 225.85V220.5C552.161 223.067 549.827 225.133 547.127 226.7C544.427 228.233 541.544 229 538.477 229C535.577 229 532.961 228.467 530.627 227.4C528.327 226.3 526.344 224.75 524.677 222.75C523.044 220.75 521.777 218.333 520.877 215.5C520.011 212.667 519.577 209.5 519.577 206V205.95V185ZM576.87 205.55C576.87 205.55 576.837 205.617 576.77 205.75C576.77 205.783 576.77 205.8 576.77 205.8C576.804 205.8 576.82 205.817 576.82 205.85C576.82 205.883 576.837 205.9 576.87 205.9C576.87 208.167 577.287 210.333 578.12 212.4C578.987 214.467 580.17 216.3 581.67 217.9C583.17 219.467 584.937 220.733 586.97 221.7C589.037 222.667 591.27 223.15 593.67 223.15C595.87 223.183 597.954 222.867 599.92 222.2C601.887 221.533 603.72 220.433 605.42 218.9C605.754 218.633 606.104 218.383 606.47 218.15C606.837 217.917 607.22 217.75 607.62 217.65C608.054 217.55 608.504 217.55 608.97 217.65C609.437 217.75 609.92 218.017 610.42 218.45C611.087 219.05 611.42 219.817 611.42 220.75C611.42 221.65 611.037 222.483 610.27 223.25C608.27 225.25 605.854 226.8 603.02 227.9C600.187 229 597.254 229.55 594.22 229.55C590.954 229.55 587.87 228.95 584.97 227.75C582.104 226.517 579.587 224.85 577.42 222.75C575.287 220.617 573.587 218.117 572.32 215.25C571.087 212.383 570.47 209.317 570.47 206.05L570.57 205.75C570.504 205.683 570.47 205.617 570.47 205.55C570.47 202.283 571.087 199.217 572.32 196.35C573.587 193.45 575.287 190.933 577.42 188.8C579.587 186.633 582.104 184.933 584.97 183.7C587.87 182.433 590.954 181.8 594.22 181.8C597.254 181.8 600.187 182.35 603.02 183.45C605.854 184.55 608.27 186.1 610.27 188.1C611.037 188.867 611.42 189.717 611.42 190.65C611.42 191.55 611.07 192.317 610.37 192.95C609.87 193.383 609.387 193.65 608.92 193.75C608.487 193.85 608.054 193.85 607.62 193.75C607.22 193.65 606.837 193.483 606.47 193.25C606.104 193.017 605.754 192.767 605.42 192.5C603.72 191 601.887 189.9 599.92 189.2C597.954 188.5 595.87 188.167 593.67 188.2C591.304 188.233 589.104 188.733 587.07 189.7C585.037 190.633 583.254 191.9 581.72 193.5C580.22 195.1 579.037 196.95 578.17 199.05C577.304 201.117 576.87 203.283 576.87 205.55ZM624.985 205.8C624.985 208.2 625.435 210.467 626.335 212.6C627.268 214.7 628.518 216.55 630.085 218.15C631.652 219.717 633.502 220.967 635.635 221.9C637.768 222.833 640.068 223.3 642.535 223.3C645.002 223.3 647.302 222.833 649.435 221.9C651.568 220.967 653.418 219.717 654.985 218.15C656.585 216.55 657.835 214.7 658.735 212.6C659.635 210.467 660.085 208.2 660.085 205.8C660.085 203.367 659.635 201.083 658.735 198.95C657.835 196.817 656.585 194.967 654.985 193.4C653.418 191.8 651.568 190.55 649.435 189.65C647.302 188.717 645.002 188.25 642.535 188.25C640.102 188.25 637.818 188.717 635.685 189.65C633.552 190.55 631.685 191.8 630.085 193.4C628.518 194.967 627.268 196.817 626.335 198.95C625.435 201.083 624.985 203.367 624.985 205.8ZM618.685 205.8C618.685 202.5 619.302 199.4 620.535 196.5C621.802 193.567 623.518 191.033 625.685 188.9C627.852 186.733 630.385 185.033 633.285 183.8C636.185 182.533 639.268 181.9 642.535 181.9C645.835 181.9 648.918 182.533 651.785 183.8C654.685 185.033 657.202 186.733 659.335 188.9C661.502 191.033 663.202 193.567 664.435 196.5C665.702 199.4 666.335 202.5 666.335 205.8C666.335 209.067 665.702 212.15 664.435 215.05C663.202 217.95 661.502 220.483 659.335 222.65C657.202 224.783 654.685 226.483 651.785 227.75C648.918 228.983 645.835 229.6 642.535 229.6C639.268 229.6 636.185 228.983 633.285 227.75C630.385 226.483 627.852 224.783 625.685 222.65C623.518 220.483 621.802 217.95 620.535 215.05C619.302 212.15 618.685 209.067 618.685 205.8Z" fill="#CD5334"/>
<defs>
<filter id="filter0_b_2077_14168" x="93" y="93" width="224" height="224" filterUnits="userSpaceOnUse" color-interpolation-filters="sRGB">
<feFlood flood-opacity="0" result="BackgroundImageFix"/>
<feGaussianBlur in="BackgroundImageFix" stdDeviation="2"/>
<feComposite in2="SourceAlpha" operator="in" result="effect1_backgroundBlur_2077_14168"/>
<feBlend mode="normal" in="SourceGraphic" in2="effect1_backgroundBlur_2077_14168" result="shape"/>
</filter>
</defs>
</svg>
